<svg width="96" height="96" viewBox="0 0 96 96" fill="none" xmlns="http://www.w3.org/2000/svg">
<rect width="96" height="96" rx="12" fill="#040404"/>
<path d="M61.628 32.2C62.376 32.2 62.988 32.812 62.988 33.56V40.53L54.386 46.31V40.53H42.724C41.976 40.53 41.398 41.142 41.398 41.89V44.984C41.398 45.732 41.976 46.31 42.724 46.31H52.108V54.742H41.398V61.474H32.762V47.534L32.83 47.5C32.796 47.466 32.796 47.398 32.796 47.33C32.694 46.684 32.932 46.072 33.408 45.63L46.94 32.778C47.314 32.404 47.79 32.2 48.3 32.2H61.628Z" fill="#EEEEEE"/>
</svg>
